# xmcd
#
# Track frame offsets: 
#        150
#        15540
#        29402
#        57978
#        73605
#        91183
#        107437
#        130727
#        146191
#        162521
#
# Disc length: 2460 seconds
#
# Revision: 1
# Processed by: cddbd v1.5.2PL0 Copyright (c) Steve Scherf et al.
# Submitted via: ExactAudioCopy v1.0b3
#
DISCID=84099a0a
DTITLE=Shannon Curfman - What You're Getting Into
DYEAR=2010
DGENRE=Blues Rock
TTITLE0=What You're Getting Into
TTITLE1=Free Your Mind
TTITLE2=The Core
TTITLE3=Heaven Is In Your Mind
TTITLE4=All I Have
TTITLE5=Curious
TTITLE6=Oh Well
TTITLE7=What Would Mama Say
TTITLE8=Dragon Attack
TTITLE9=Strange
EXTD=
EXTT0=
EXTT1=
EXTT2=
EXTT3=
EXTT4=
EXTT5=
EXTT6=
EXTT7=
EXTT8=
EXTT9=
PLAYORDER=
